<?xml version="1.0" encoding="utf-8"?>
<!-- Generator: Adobe Illustrator 21.0.2, SVG Export Plug-In . SVG Version: 6.00 Build 0)  -->
<svg version="1.1" id="图层_1" xmlns="http://www.w3.org/2000/svg" xmlns:xlink="http://www.w3.org/1999/xlink" x="0px" y="0px"
	 viewBox="0 0 1024 1024" style="enable-background:new 0 0 1024 1024;" xml:space="preserve">
<style type="text/css">
	.st0{fill-rule:evenodd;clip-rule:evenodd;fill:#758C94;}
</style>
<g>
	<g>
		<path class="st0" d="M1006.9,880.3L661.9,536c0,0,0,0,0,0c80-134.1,62-310.5-54-426.2C470.8-27,249-27.3,112.3,109.1
			c-136.7,136.4-136.4,357.8,0.6,494.6c116,115.7,292.7,133.7,427.1,53.9c0,0,0,0,0,0l345,344.3c19.1,19,61.8,7.2,95.4-26.4
			C1014.1,942,1025.9,899.4,1006.9,880.3z M153.7,563C39.9,449.4,40.2,265,154.3,151c114.2-113.9,299-114.2,412.8-0.6
			c113.2,113,113.5,296,1.2,410.1c-0.6,0.6-1.3,1.2-1.9,1.8c-0.6,0.6-1.2,1.3-1.8,1.9C450.3,676.3,266.9,676,153.7,563z"/>
	</g>
</g>
</svg>
