<?xml version="1.0" encoding="utf-8"?>
<!-- Generator: Adobe Illustrator 18.0.0, SVG Export Plug-In . SVG Version: 6.00 Build 0)  -->
<!DOCTYPE svg PUBLIC "-//W3C//DTD SVG 1.1//EN" "http://www.w3.org/Graphics/SVG/1.1/DTD/svg11.dtd">
<svg version="1.1" id="图形" xmlns="http://www.w3.org/2000/svg" xmlns:xlink="http://www.w3.org/1999/xlink" x="0px" y="0px"
	 viewBox="15.167 -16.333 1000.636 1000.678" style="enable-background:new 15.167 -16.333 1000.636 1000.678;"
	 xml:space="preserve">
<style type="text/css">
	.st0{fill-rule:evenodd;clip-rule:evenodd;fill:#A3A3A3;}
</style>
<g>
	<path class="st0" d="M859.412,116.521h-36.036v175.062c0,37.208-30.175,67.444-67.446,67.444
		c-37.209,0-67.383-30.236-67.383-67.444V116.521H340.523v174.629c0,37.271-30.236,67.507-67.507,67.507
		c-37.21,0-67.384-30.236-67.384-67.507V116.521h-37.024c-47.822,0-86.512,38.752-86.512,86.513v189.439h863.891V203.034
		C945.986,155.273,907.297,116.521,859.412,116.521L859.412,116.521z"/>
	<path class="st0" d="M324.417,272.7c0,28.571-23.201,51.649-51.648,51.649l0,0c-28.571,0-51.648-23.078-51.648-51.649V102.39
		c0-28.569,23.14-51.648,51.648-51.648l0,0c28.446,0,51.648,23.078,51.648,51.648V272.7L324.417,272.7z"/>
	<path class="st0" d="M808.998,272.7c0,28.571-23.078,51.649-51.711,51.649l0,0c-28.569,0-51.648-23.078-51.648-51.649V102.39
		c0-28.569,23.078-51.648,51.648-51.648l0,0c28.632,0,51.711,23.078,51.711,51.648V272.7L808.998,272.7z"/>
	<path class="st0" d="M895.51,428.263v6.788v98.359v240.902c0,47.761-38.689,86.451-86.451,86.451H218.344
		c-47.761,0-86.451-38.69-86.451-86.451V525.018v-89.597v-7.158H82.096v85.401v11.416v301.19c0,47.76,38.69,86.574,86.575,86.574
		h690.68c47.884,0,86.575-38.813,86.575-86.574V533.41v-19.746v-85.401H895.51L895.51,428.263z"/>
	<path class="st0" d="M538.292,679.1h67.939c6.726,31.099,24.004,40.047,40.849,40.047c24.991,0,40.171-16.167,40.171-44.613
		c0-16.044-5.985-38.628-40.171-39.492h-21.659v-42.577h9.812c34.186-0.864,42.392-14.871,42.392-40.726
		c0-16.722-12.403-28.879-32.457-29.435c-26.287-0.679-30.298,11.416-36.901,27.336l-63.619,0.123
		c14.748-48.932,48.934-73.801,102.494-74.665c64.916,1.728,98.546,27.953,100.89,78.614c0,24.868-14.315,43.689-42.7,56.091
		c36.345,12.464,54.61,34.741,54.61,66.643c-2.283,53.376-39.862,81.391-112.737,84.044
		C585.621,760.552,548.535,730.686,538.292,679.1L538.292,679.1z"/>
	<path class="st0" d="M491.395,696.439v60.164H272.769v-38.814c23.818-37.332,47.575-65.347,92.066-93.794
		C405.746,597.276,420,576.913,420,557.353c0-4.32,0.186-26.719-32.766-26.719c-22.954,0.864-39.801,11.231-39.801,34.864
		l-69.605,0.433c4.011-67.076,58.621-90.894,114.528-90.894c63.681,2.654,97.866,29.743,102.433,81.268
		c2.283,34.74-17.278,67.939-70.84,100.827c-29.619,17.711-32.273,19.685-50.414,39.246h117.859V696.439L491.395,696.439z"/>
</g>
</svg>
