<?xml version="1.0" encoding="utf-8"?>
<!-- Generator: Adobe Illustrator 19.0.0, SVG Export Plug-In . SVG Version: 6.00 Build 0)  -->
<svg version="1.1" id="图层_1" xmlns="http://www.w3.org/2000/svg" xmlns:xlink="http://www.w3.org/1999/xlink" x="0px" y="0px"
	 viewBox="0 0 1024 1024" style="enable-background:new 0 0 1024 1024;" xml:space="preserve">
<style type="text/css">
	.st0{fill:#7DA3C4;}
	.st1{fill:#F4A241;}
</style>
<g id="XMLID_10_">
	<g id="XMLID_70_">
		<path id="XMLID_71_" class="st0" d="M693.2,699.6c-18-62.3-87-119.8-151.4-129.2l-16.3-0.2c-6.7,0.2-13.3,1.8-19.3,4.9
			c0,0-12.9,7.3-24.7,12.5c-37.4,15.9-77.7,24-118.4,23.8c-40.5,0.1-80.5-7.9-117.8-23.6c-12-5.2-25.3-12.7-25.3-12.7
			c-6-3-12.6-4.7-19.3-4.9l-16,0.2C120,578.6,52,635.8,32.7,697.7c0,0-20.7,41.7-23.6,123.7c-0.2,10.6,8.5,24.2,19.5,29.9
			c0,0,110.1,70.5,334,70.5c224,0,334-70.5,334-70.5c10.9-5.8,19.7-20.8,19.5-30.2C713.4,739.7,693.2,699.6,693.2,699.6z
			 M630.5,814.5L630.5,814.5c0,0-88.3,45.7-267.8,45.7c-179.6,0-267.8-45.7-267.8-45.7c-8.9-3.7-15.8-12.5-15.6-19.4
			c2.3-53.3,18.9-80.3,18.9-80.3c15.5-40.1,44.6-71.7,96.4-77.2l12.8-0.1c4.6,0,11.5,1.3,15.5,3.1c0,0,10.5,4.9,20.2,8.3
			c28.2,9.8,85.8,17.6,119.9,17.6c34.4,0,90.4-7.8,118.7-17.7c9.5-3.4,19.9-8.1,19.9-8.1c4-1.7,10.9-3.2,15.5-3.1l13,0.1
			c51.8,6.1,83.3,37.9,97.8,78.4c0,0,16.2,25.9,18.4,78.9C646.3,800.9,639.4,810.6,630.5,814.5z M362.6,566.2
			c121.6,0,220.5-98.7,220.5-219.9s-98.9-219.9-220.5-219.9c-121.7,0.1-220.4,98.5-220.5,219.9C142.1,467.5,241,566.2,362.6,566.2z
			 M362.6,183.7c90,0.1,162.9,72.8,163,162.5c-0.1,89.7-73,162.4-163,162.5c-90-0.1-162.9-72.8-163-162.5
			C199.8,256.5,272.7,183.8,362.6,183.7z"/>
	</g>
</g>
<path id="XMLID_17_" class="st1" d="M738.4,535c77.6-0.1,140.5-62.8,140.6-140.2c0-77.3-63.1-140.3-140.6-140.3
	s-140.6,62.9-140.6,140.3C597.9,472.2,660.8,534.9,738.4,535z M738.4,311.9c45.9,0.1,83,37.2,83.1,82.9c0,45.7-37.3,82.8-83.1,82.8
	c-45.8,0-83.1-37.2-83.1-82.8C655.3,349.1,692.5,312,738.4,311.9z M980.9,658c-14-48.5-67.7-93.2-117.7-100.5l-12.6-0.1
	c-5.2,0.2-10.3,1.5-15,3.9c0,0-10.1,5.7-19.3,9.6c-29.1,12.3-60.4,18.6-92,18.4c-7.7,0-15.3-0.3-22.7-1.1
	c10.9,13.8,20.3,39.5,27.9,54.5c23.6-0.6,74.9-7.8,93.7-14.3c6.8-2.4,14.1-5.7,14.1-5.7c3.5-1.4,7.2-2.1,11-2.3l9.4,0.2
	c36.9,4.3,85.1,62.2,68.4,108.4c-1.4,4.1-4.9,11.2-11.2,14c0,0-47.8,24.7-144.8,31.1c2.1,16.5,3.8,35,4.7,55.1
	c139.8-9.1,208.6-53.1,208.6-53.1c8.6-4.6,15.4-16.2,15.2-23.4C996.5,689.1,980.9,658,980.9,658L980.9,658z"/>
</svg>
