<?xml version="1.0" encoding="utf-8"?>
<!-- Generator: Adobe Illustrator 19.0.0, SVG Export Plug-In . SVG Version: 6.00 Build 0)  -->
<svg version="1.1" id="图层_1" xmlns="http://www.w3.org/2000/svg" xmlns:xlink="http://www.w3.org/1999/xlink" x="0px" y="0px"
	 viewBox="-411 413 200 200" style="enable-background:new -411 413 200 200;" xml:space="preserve">
<style type="text/css">
	.st0{fill:#FFCC75;}
	.st1{fill:#F2EBD9;}
	.st2{fill:#FF6E1D;}
	.st3{fill:#FFFFFF;}
	.st4{fill:#082947;}
</style>
<path class="st0" d="M-303.3,533.2h-15.4c-9.1,3-15.6,10.9-16.8,20.2h48.9C-287.7,544.1-294.1,536.2-303.3,533.2z"/>
<path class="st1" d="M-311,511.9c-1.7,0-3.4-0.1-5-0.4l0,15.2h10.1l0-15.2C-307.6,511.8-309.3,511.9-311,511.9z"/>
<path class="st0" d="M-271,419.4h-80l10.1,60.8c2.4,14.7,15,25.3,29.9,25.3s27.5-10.6,29.9-25.3L-271,419.4z M-339.8,448l-3.1-18.5
	c-0.3-1.7,0.9-3.4,2.6-3.7l0,0c1.7-0.3,3.4,0.9,3.7,2.6c0,0,0,0,0,0l3.1,18.5c0.3,1.7-0.9,3.4-2.6,3.7c-0.2,0-0.4,0-0.5,0
	C-338.2,450.7-339.5,449.6-339.8,448z M-311,499.1c-11.8,0-21.7-8.4-23.6-20l-3.1-18.5c-0.3-1.7,0.9-3.4,2.6-3.7l0,0
	c1.7-0.3,3.4,0.9,3.7,2.6l3.1,18.5c1.4,8.5,8.7,14.6,17.3,14.6c1.8,0,3.2,1.4,3.2,3.2S-309.2,499.1-311,499.1L-311,499.1z"/>
<path class="st1" d="M-290.4,593.8h5.3v-21.3h-51.9v21.3h33.8c1.8,0,3.2,1.4,3.2,3.2h6.4C-293.6,595.3-292.2,593.8-290.4,593.8z"/>
<path class="st2" d="M-349.7,559.8v46.8h77.4v-46.8H-349.7z M-278.7,569.4V597c0,1.8-1.4,3.2-3.2,3.2h-8.5c-1.8,0-3.2-1.4-3.2-3.2
	h-6.4c0,1.8-1.4,3.2-3.2,3.2h-37c-1.8,0-3.2-1.4-3.2-3.2v-27.7c0-1.8,1.4-3.2,3.2-3.2h58.2C-280.1,566.2-278.7,567.6-278.7,569.4
	L-278.7,569.4z"/>
<path class="st3" d="M-336.1,450.6c1.7-0.3,2.9-1.9,2.6-3.7l-3.1-18.5c-0.3-1.7-1.9-2.9-3.7-2.6c0,0,0,0,0,0
	c-1.7,0.3-2.9,1.9-2.6,3.7l3.1,18.5C-339.5,449.8-337.8,450.9-336.1,450.6z M-311,492.7c-8.6,0-15.9-6.2-17.3-14.6l-3.1-18.5
	c-0.3-1.7-1.9-2.9-3.7-2.6c-1.7,0.3-2.9,1.9-2.6,3.7l3.1,18.5c1.9,11.6,11.9,20,23.6,20c1.8,0,3.2-1.4,3.2-3.2
	S-309.2,492.8-311,492.7C-311,492.7-311,492.7-311,492.7z"/>
<path class="st4" d="M-239.5,421.6h-15c-1.6,0-2.9,1.1-3.1,2.7l-0.3,1.9c-0.8,4.7-4.7,8.9-9.3,10.4l3.3-19.9
	c0.3-1.7-0.9-3.4-2.6-3.7c-0.2,0-0.3,0-0.5,0h-87.5c-1.8,0-3.2,1.4-3.2,3.2c0,0.2,0,0.3,0,0.5l3.3,19.9c-4.6-1.5-8.5-5.7-9.3-10.4
	l-0.3-1.9c-0.3-1.5-1.6-2.7-3.1-2.7h-15c-1.8,0-3.2,1.4-3.2,3.2c0,15.6,4.2,30.3,11.8,41.4c7.3,10.6,16.8,16.8,27.2,17.7
	c1.8,7.5,6,14.3,11.8,19.3c3.6,3.1,7.9,5.5,12.4,7l0,17.7c-10.9,4.3-18.3,14.1-19.5,25.7h-11c-1.8,0-3.2,1.4-3.2,3.2v53.2
	c0,1.8,1.4,3.2,3.2,3.2h83.8c1.8,0,3.2-1.4,3.2-3.2v-53.2c0-1.8-1.4-3.2-3.2-3.2h-11c-1.2-11.6-8.6-21.4-19.5-25.7l0-17.7
	c4.6-1.5,8.8-3.9,12.4-7c5.9-5,10-11.8,11.8-19.3c10.3-0.9,19.9-7.1,27.2-17.7c7.6-11.1,11.8-25.8,11.8-41.4
	C-236.4,423-237.8,421.6-239.5,421.6C-239.5,421.6-239.5,421.6-239.5,421.6L-239.5,421.6z M-272.3,606.6h-77.4v-46.8h77.4
	L-272.3,606.6L-272.3,606.6z M-335.5,553.4c1.2-9.4,7.6-17.2,16.8-20.2h15.4c9.1,3,15.6,10.9,16.8,20.2H-335.5z M-316,526.8l0-15.2
	c1.7,0.2,3.3,0.4,5,0.4s3.4-0.1,5-0.4l0,15.2H-316z M-311,505.5c-14.9,0-27.5-10.6-29.9-25.3l-10.1-60.8h80l-10.1,60.8
	C-283.5,494.9-296.1,505.5-311,505.5z M-379.2,428h9.1c1.7,7.8,8.7,14.3,16.6,15.4l5.6,33.8C-364.8,474.5-378.2,453.7-379.2,428z
	 M-274.1,477.2l5.6-33.8c7.9-1.2,14.9-7.6,16.6-15.4h9.1C-243.8,453.7-257.2,474.5-274.1,477.2z"/>
<path class="st4" d="M-343.3,569.4V597c0,1.8,1.4,3.2,3.2,3.2h37c1.8,0,3.2-1.4,3.2-3.2c0-1.8-1.4-3.2-3.2-3.2h-33.8v-21.3h51.9
	v21.3h-5.3c-1.8,0-3.2,1.4-3.2,3.2c0,1.8,1.4,3.2,3.2,3.2h8.5c1.8,0,3.2-1.4,3.2-3.2v-27.7c0-1.8-1.4-3.2-3.2-3.2h-58.2
	C-341.9,566.2-343.3,567.6-343.3,569.4z"/>
</svg>
