<?xml version="1.0" encoding="utf-8"?>
<!-- Generator: Adobe Illustrator 19.0.0, SVG Export Plug-In . SVG Version: 6.00 Build 0)  -->
<svg version="1.1" id="图层_1" xmlns="http://www.w3.org/2000/svg" xmlns:xlink="http://www.w3.org/1999/xlink" x="0px" y="0px"
	 viewBox="0 0 1024 1024" style="enable-background:new 0 0 1024 1024;" xml:space="preserve">
<style type="text/css">
	.st0{fill:#F29118;}
	.st1{fill:#83A949;}
</style>
<g id="XMLID_5_">
	<g id="XMLID_37_">
		<path id="XMLID_38_" class="st0" d="M1016.7,926.1L960,833.4h36.1c8.4,0,16.2-4.6,20.3-12.1c4.1-7.4,3.9-16.6-0.5-23.8
			L856.4,535.8c-9-21.3-24.8-32.8-32.8-32.8h-32.8c-90.4,0-60.5,65.6-32.8,65.6h32.8l98.3,196.7H135.2l98.3-196.7h65.6
			c14.2-3.8,40.8-67.7-32.8-65.6h-65.6c-8,0-23.1,16.6-27.3,23.5L7.6,797.5C3.2,804.8,3,813.9,7,821.3c4.1,7.4,11.9,12.1,20.3,12.1
			h37.9L8.5,926.1c-4.4,7.2-4.6,16.3-0.6,23.8c4.1,7.4,11.9,12.1,20.3,12.1H997c8.4,0,16.2-4.6,20.3-12.1
			C1021.4,942.4,1021.2,933.3,1016.7,926.1z M102.7,896.5l44.2-63.3c0.6-0.9,1.1-1.8,1.6-2.8h727.3c0.4,0.9,0.9,1.9,1.6,2.8
			l44.2,63.3H102.7z"/>
	</g>
</g>
<path id="XMLID_10_" class="st1" d="M521.5,149.3c50,0,90.6,41.2,90.6,91.8c0,50.6-40.7,91.8-90.6,91.8c-50,0-90.7-41.2-90.7-91.8
	C430.8,190.4,471.5,149.3,521.5,149.3z M695.4,499.4c29.2-46,55.1-95,69.4-140.5c9.2-27,13.8-55.3,13.8-84.1
	c0-142.5-114.5-258.5-255.3-258.5s-255.3,116-255.3,258.5c0,40.8,9.7,81.5,27.9,117.7c15.8,35.8,36.1,72,58.4,106.9l33.3,49.4
	c41.5,58.5,84.7,109.9,114.7,143.7c5.7,6.4,13.7,10,22.1,10.1c0.1,0,0.2,0,0.3,0c8.4,0,16.3-3.5,22-9.7c4-4.4,59.9-65.4,115.5-144.1
	L695.4,499.4z"/>
</svg>
