<?xml version="1.0" encoding="utf-8"?>
<!-- Generator: Adobe Illustrator 19.0.0, SVG Export Plug-In . SVG Version: 6.00 Build 0)  -->
<svg version="1.1" id="图层_1" xmlns="http://www.w3.org/2000/svg" xmlns:xlink="http://www.w3.org/1999/xlink" x="0px" y="0px"
	 viewBox="0 0 1024 1024" style="enable-background:new 0 0 1024 1024;" xml:space="preserve">
<style type="text/css">
	.st0{fill:#F29118;}
	.st1{fill:#7895B1;}
	.st2{fill:#83A949;}
	.st3{fill:#EA5756;}
</style>
<g id="XMLID_5_">
	<g id="XMLID_70_">
		<path id="XMLID_71_" class="st0" d="M362.7,88.2H138.2C54.5,88.2,3.5,121.5,3.5,216v149.1C3.5,452.4,32.8,493,138.2,493h359.2
			l1.8,0V219.7C499.1,141.7,455.2,88.2,362.7,88.2z M428,240.9v184.4H167.3c-111.7,0-97.8,7.8-97.8-85.1v-99.3
			c0-98.8-22.2-85.1,97.8-85.1h162.9C436.6,155.8,428,144.6,428,240.9z"/>
	</g>
</g>
<g id="XMLID_6_">
	<g id="XMLID_74_">
		<path id="XMLID_75_" class="st1" d="M889.3,88.2H664.8c-92.5,0-136.5,53.5-136.5,131.5V493l1.8,0h359.2
			c105.4,0,134.7-40.6,134.7-127.8V216C1024,121.5,973,88.2,889.3,88.2z M860.2,425.3H599.5V240.9c0-96.3-8.5-85.1,97.8-85.1h162.9
			c120,0,97.8-13.7,97.8,85.1v99.3C957.9,433.1,971.9,425.3,860.2,425.3z"/>
	</g>
</g>
<g id="XMLID_26_">
	<g id="XMLID_82_">
		<path id="XMLID_83_" class="st2" d="M497.4,515.9H138.2C32.8,515.9,3.5,556.4,3.5,643.7v149.1c0,94.5,51,127.8,134.7,127.8h224.5
			c92.5,0,136.5-53.5,136.5-131.5V515.8L497.4,515.9z M330.3,853H167.3c-120,0-97.8,13.7-97.8-85.1v-99.3c0-92.9-14-85.1,97.8-85.1
			H428v184.4C428,864.3,436.6,853,330.3,853z"/>
	</g>
</g>
<g id="XMLID_16_">
	<g id="XMLID_78_">
		<path id="XMLID_79_" class="st3" d="M889.3,515.9H530.2l-1.8,0v273.3c0,78,43.9,131.5,136.5,131.5h224.5
			c83.7,0,134.7-33.4,134.7-127.8V643.7C1024,556.4,994.8,515.9,889.3,515.9z M860.2,853H697.3c-106.3,0-97.8,11.2-97.8-85.1V583.5
			h260.7c111.7,0,97.8-7.8,97.8,85.1v99.3C957.9,866.7,980.2,853,860.2,853z"/>
	</g>
</g>
</svg>
