<?xml version="1.0" encoding="utf-8"?>
<!-- Generator: Adobe Illustrator 19.0.0, SVG Export Plug-In . SVG Version: 6.00 Build 0)  -->
<svg version="1.1" id="图层_1" xmlns="http://www.w3.org/2000/svg" xmlns:xlink="http://www.w3.org/1999/xlink" x="0px" y="0px"
	 viewBox="0 0 1024 1024" style="enable-background:new 0 0 1024 1024;" xml:space="preserve">
<style type="text/css">
	.st0{fill:#547A9D;}
	.st1{fill:#EA5756;}
</style>
<g id="XMLID_5_">
	<g id="XMLID_35_">
		<path id="XMLID_37_" class="st0" d="M13,526l489.9,210c2.6,1.8,6.1,2.7,9.5,2.7c3.5,0,6.9-0.9,9.5-2.7L1011,526
			c7.8-4.5,13-12.6,13-22.5c0-9.9-5.2-18-13-21.6L895.9,425l-54.7,64.5h73.1L512,672.4L109.7,489.5l73.1-36.6L128.1,425L13,482.7
			c-7.8,3.6-13,11.7-13,21.6C0,514.3,5.2,522.4,13,526z M1011,695l-115.1-59.7l-54.7,67.8h73.1L512,895.3L109.7,703.1l73.1-38.4
			l-54.8-29.3L13,695.9c-7.8,3.8-13,12.3-13,22.7c0,10.4,5.2,18.9,13,22.7l489.9,220.7c2.6,1.9,6.1,2.8,9.5,2.8
			c3.5,0,6.9-0.9,9.5-2.8L1011,741.4c7.8-4.7,13-13.3,13-23.7C1024,707.3,1018.8,698.8,1011,695z"/>
	</g>
</g>
<path id="XMLID_8_" class="st1" d="M1003.5,304.1l-146.9,72.6h0.8l-52.1,26.2l-1.7-0.9L529.2,539.2c-2.5,1.7-5.9,2.6-9.2,2.6
	c-3.4,0-6.7-0.9-9.2-2.6l-251.9-125v-0.9l-75.6-36.7L35.5,304.1c-7.6-3.5-12.6-11.4-12.6-21c0-9.6,5-17.5,12.6-21L509.8,27
	c3.4-1.7,5.9-2.6,9.2-2.6c3.4,0,6.7,0.9,9.2,2.6l474.4,235.2c7.6,3.5,12.6,11.4,12.6,21C1016.1,292.7,1011.1,300.6,1003.5,304.1
	L1003.5,304.1z"/>
</svg>
