<?xml version="1.0" encoding="utf-8"?>
<!-- Generator: Adobe Illustrator 19.0.0, SVG Export Plug-In . SVG Version: 6.00 Build 0)  -->
<svg version="1.1" id="图层_1" xmlns="http://www.w3.org/2000/svg" xmlns:xlink="http://www.w3.org/1999/xlink" x="0px" y="0px"
	 viewBox="0 0 1024 1024" style="enable-background:new 0 0 1024 1024;" xml:space="preserve">
<style type="text/css">
	.st0{fill:#6DB5DA;}
	.st1{fill:none;}
	.st2{fill:#83A949;}
</style>
<g id="XMLID_13_">
	<g id="XMLID_39_">
		<path id="XMLID_40_" class="st0" d="M776.3,675.8c-1.8-18.3-17.5-32.6-36.6-32.6c-19.1,0-34.8,14.3-36.6,32.6H703v199H303.7v-0.6
			c-5,0.4-10,0.6-15,0.6c-116,0-210-93.3-210-208.5c0-94.4,63.1-174,149.7-199.7c19.1-5.7,39.4-8.8,60.3-8.8c3.4,0,6.7,0.1,10.1,0.2
			v0c0,0,0,0,0,0c0.1-1.5,0.2-2.9,0.3-4.4c0-0.3,0-0.5,0.1-0.8c0.2-2.7,0.5-5.4,0.8-8c0.1-0.8,0.2-1.6,0.3-2.3c0-0.1,0-0.2,0-0.3
			c0.1-0.5,0.1-1.1,0.2-1.6c0.1-0.6,0.2-1.1,0.3-1.7c0,0,0,0,0,0c0-0.3,0.1-0.6,0.1-0.9c0.1-0.9,0.3-1.8,0.4-2.8
			c0.1-0.4,0.1-0.8,0.2-1.2c0.2-0.9,0.3-1.8,0.5-2.6v-0.1c0.3-1.4,0.5-2.7,0.8-4.1c0.3-1.2,0.5-2.5,0.8-3.7c0-0.2,0.1-0.4,0.1-0.6
			c0.1-0.6,0.3-1.2,0.4-1.7c0.6-2.4,1.2-4.7,1.9-7.1c0-0.1,0-0.1,0-0.2c0-0.1,0.1-0.2,0.1-0.4c0,0,0,0,0-0.1
			c0.2-0.7,0.4-1.5,0.6-2.2c0.2-0.6,0.4-1.3,0.6-1.9c0.3-1,0.7-2.1,1-3.1c1.1-3.4,2.3-6.8,3.6-10.1c0.4-1.1,0.8-2.2,1.3-3.3
			c0.4-0.9,0.7-1.7,1.1-2.6c0.1-0.3,0.2-0.6,0.3-0.8c0,0,0,0,0,0c31.9-74.8,106.5-127.4,193.5-127.4c79.9,0,149.3,44.3,184.8,109.5
			c3.1-0.5,6.1-1,9.2-1.4c12.4-1.7,25.2-2.6,38.1-2.6c9.6,0,19.2,0.6,28.6,1.5c-40.8-103.4-142.1-176.6-260.7-176.6
			c-127.3,0-234.8,84.4-268.7,199.9c0,0,0,0,0,0C108.4,415.6,8.7,529.4,8.7,666.3c0,153.5,125.4,278,280,278h482
			c3.2,0,5.8-2.6,5.8-5.7V717.8h0.1v-42H776.3z"/>
	</g>
</g>
<g id="XMLID_21_">
	<path id="XMLID_57_" class="st1" d="M1022,666.2c0-153.4-125.3-277.9-279.9-277.9c-130.5,0-240.2,88.8-271.1,208.8
		c0,0.1-0.1,0.2-0.1,0.4c0,0.3-0.1,0.6-0.2,0.9c-0.3,1.3-0.7,2.6-0.9,4c-0.4,2-0.6,3.9-0.6,6c0,0,0,0,0,0c0,0,0,0.1,0,0.1
		c0,0.6,0,1.2,0.1,1.9h0c1,18.5,16.5,33.3,35.4,33.3c19,0,34.5-14.8,35.4-33.4c0-0.1,0-0.3,0-0.4c24.8-87.7,105.8-152,202-152
		c115.9,0,209.9,93.3,209.9,208.4c0,58.2-24,110.9-62.9,148.7l0,0c-7.6,6.4-12.5,15.9-12.5,26.6c0,19.2,15.7,34.8,35.1,34.8
		c10.9,0,20.6-4.9,27-12.6C990.1,813.4,1022,743.5,1022,666.2z"/>
</g>
<path id="XMLID_10_" class="st2" d="M947.9,841.7c0,19.2-15.7,34.9-35.1,34.9c-19.4,0-35.1-15.6-35.1-34.9
	c0-19.3,15.7-34.9,35.1-34.9C932.2,806.9,947.9,822.5,947.9,841.7z"/>
<path id="XMLID_29_" class="st2" d="M1023,666.3c0,79.8-33.9,151.6-88.1,202.3L890.1,815c38.8-37.8,62.9-90.4,62.9-148.7
	c0-115.2-94-208.5-210-208.5c-96.4,0-177.6,64.6-202.3,152.5H470c-0.1-0.6-0.1-1.2-0.1-1.9c0-2.1,0.2-4,0.6-6c0.3-1.3,0.6-2.6,0.9-4
	c0.1-0.3,0.2-0.6,0.2-0.9C502.4,477.4,612.3,388.4,743,388.4C897.7,388.4,1023,512.8,1023,666.3z"/>
<path id="XMLID_27_" class="st2" d="M541,608.4c0,0.6,0,1.2-0.1,1.9c-0.9,18.6-16.4,33.4-35.4,33.4c-19,0-34.5-14.8-35.4-33.4
	c-0.1-0.6-0.1-1.2-0.1-1.9c0-2.1,0.2-4,0.6-6c0.3-1.3,0.6-2.6,0.9-4c0.1-0.3,0.2-0.6,0.2-0.9c4.6-14.1,18-24.4,33.8-24.4
	C525.1,573.1,541,588.9,541,608.4L541,608.4z"/>
</svg>
