<?xml version="1.0" encoding="utf-8"?>
<!-- Generator: Adobe Illustrator 19.0.0, SVG Export Plug-In . SVG Version: 6.00 Build 0)  -->
<svg version="1.1" id="图层_1" xmlns="http://www.w3.org/2000/svg" xmlns:xlink="http://www.w3.org/1999/xlink" x="0px" y="0px"
	 viewBox="-411 413 200 200" style="enable-background:new -411 413 200 200;" xml:space="preserve">
<style type="text/css">
	.st0{fill:#FFCA0C;}
	.st1{fill:#FF8787;}
	.st2{fill:#185677;}
	.st3{fill:#FFFFFF;}
	.st4{fill:#F7F3E8;}
	.st5{fill:#FFCC75;}
	.st6{fill:#F2EBD9;}
	.st7{fill:#A0C460;}
</style>
<g>
	<g>
		<polygon class="st0" points="-350.4,502.1 -409.5,502.1 -377.5,443.2 		"/>
		<path class="st0" d="M-379.5,541.8c-16.2,0-29.5-12.1-31.5-27.8h62.9C-350,529.7-363.3,541.8-379.5,541.8z"/>
		<path class="st0" d="M-348,514c0,7.7-62.9,5.9-62.9,0c-0.4-7.7,1.6-12.1,1.6-12.1h58.9C-350.5,501.9-348,506.4-348,514z"/>
	</g>
</g>
<g>
	<g>
		<polygon class="st1" points="-213.3,503.2 -270.8,503.2 -239.7,445.9 		"/>
		<path class="st1" d="M-241.6,541.8c-15.7,0-28.7-11.8-30.6-27h61.2C-212.9,530-225.9,541.8-241.6,541.8z"/>
		<path class="st1" d="M-211,514.8c0,7.5-61.2,5.8-61.2,0c-0.3-7.5,1.5-11.8,1.5-11.8h57.3C-213.4,503-211,507.3-211,514.8z"/>
	</g>
</g>
<path class="st2" d="M-239.7,446.9c3.5,0,25.6,0,25.6,0c2,0,3.7-1.6,3.7-3.7v-3.7c0-2-1.6-3.7-3.7-3.7h-81.4V414
	c0-2-1.6-3.7-3.7-3.7h-23.7c-2,0-3.7,1.6-3.7,3.7v21.9h-81.4c-2,0-3.7,1.6-3.7,3.7v3.7c0,2,1.6,3.7,3.7,3.7c0,0,24,0.2,29.2,0
	 M-367.7,446.9c5.9,0,41.2,0,41.2,0v135.2h-33.9c-2,0-3.7,1.6-3.7,3.7v3.7c0,2,1.6,3.7,3.7,3.7h98.7c2,0,3.7-1.6,3.7-3.7v-3.7
	c0-2-1.6-3.7-3.7-3.7h-33.9V446.9c0,0,38.4,0,44.8,0"/>
<path class="st3" d="M-252.5,483.3c1.4,0.9,3.1,0.6,3.7-0.6l6.7-12.8c0.6-1.2,0-2.9-1.4-3.8c0,0,0,0,0,0c-1.4-0.9-3.1-0.6-3.7,0.6
	l-6.7,12.8C-254.5,480.7-253.9,482.4-252.5,483.3z M-254.5,523.3c-6.3-5.2-8.7-13.2-5.6-19.1l6.7-12.8c0.6-1.2,0-2.9-1.4-3.8
	c-1.4-0.9-3.1-0.6-3.7,0.6l-6.7,12.8c-4.2,8-1,18.9,7.6,26c1.3,1.1,3,1.1,3.9,0.1C-252.9,526.1-253.2,524.4-254.5,523.3
	C-254.5,523.3-254.5,523.3-254.5,523.3z"/>
<path class="st3" d="M-390.4,486.6c1.4,0.9,3.1,0.6,3.8-0.6l6.9-13.1c0.6-1.2,0-2.9-1.4-3.8c0,0,0,0,0,0c-1.4-0.9-3.1-0.6-3.8,0.6
	l-6.9,13.1C-392.5,484-391.8,485.7-390.4,486.6z M-392.4,527.3c-6.4-5.3-8.8-13.4-5.7-19.4l6.9-13.1c0.6-1.2,0-2.9-1.4-3.8
	c-1.4-0.9-3.1-0.6-3.8,0.6l-6.9,13.1c-4.3,8.1-1,19.3,7.8,26.5c1.3,1.1,3.1,1.1,4,0.1C-390.7,530.2-391.1,528.5-392.4,527.3
	C-392.4,527.4-392.4,527.4-392.4,527.3z"/>
<path class="st4" d="M-326.5,410.3l0,168.3h31l0-168.3L-326.5,410.3z"/>
<path class="st5" d="M-341.1,582h59.7"/>
<path class="st6" d="M-285.1,617.4h6.5v-21.3h-63.2v21.3h41.2c2.1,0,3.9,1.4,3.9,3.2h7.8C-289,618.8-287.3,617.4-285.1,617.4z"/>
<path class="st7" d="M-357.4,583.3v46.8h94.3v-46.8H-357.4z M-270.8,592.9v27.7c0,1.8-1.7,3.2-3.9,3.2h-10.4c-2.1,0-3.9-1.4-3.9-3.2
	h-7.8c0,1.8-1.7,3.2-3.9,3.2h-45c-2.1,0-3.9-1.4-3.9-3.2v-27.7c0-1.8,1.7-3.2,3.9-3.2h71C-272.6,589.7-270.8,591.1-270.8,592.9
	L-270.8,592.9z"/>
<path class="st2" d="M-275.5,637.9h14.5c3,0,5.4-2.5,5.4-5.6V584c0-3.1-2.4-5.6-5.4-5.6h-99c-3,0-5.4,2.5-5.4,5.6v48.3
	c0,3.1,2.4,5.6,5.4,5.6h62.8"/>
</svg>
