<?xml version="1.0" encoding="utf-8"?>
<!-- Generator: Adobe Illustrator 19.0.0, SVG Export Plug-In . SVG Version: 6.00 Build 0)  -->
<svg version="1.1" id="图层_1" xmlns="http://www.w3.org/2000/svg" xmlns:xlink="http://www.w3.org/1999/xlink" x="0px" y="0px"
	 viewBox="-411 413 200 200" style="enable-background:new -411 413 200 200;" xml:space="preserve">
<style type="text/css">
	.st0{fill:#082947;}
	.st1{fill:#FFCC75;}
	.st2{fill:#A0C460;}
	.st3{fill:#FFFFFF;}
	.st4{fill:#F2EBD9;}
</style>
<path class="st0" d="M-243.3,445.1c3.1,0,22.5,0,22.5,0c1.8,0,3.2-1.4,3.2-3.2v-3.2c0-1.8-1.4-3.2-3.2-3.2h-71.5v-19.3
	c0-1.8-1.4-3.2-3.2-3.2h-20.8c-1.8,0-3.2,1.4-3.2,3.2v19.3h-71.5c-1.8,0-3.2,1.4-3.2,3.2v3.2c0,1.8,1.4,3.2,3.2,3.2
	c0,0,21.1,0.2,25.7,0c0,0-32.2,52.1-32.2,64.3c0,19.3,15.8,35.4,35.4,35.4c19.5,0,35.4-16.2,35.4-35.4c0-8.6-28.9-64.3-28.9-64.3
	c5.2,0,36.2,0,36.2,0V564h-29.8c-1.8,0-3.2,1.4-3.2,3.2v3.2c0,1.8,1.4,3.2,3.2,3.2h86.8c1.8,0,3.2-1.4,3.2-3.2v-3.2
	c0-1.8-1.4-3.2-3.2-3.2h-29.8V445.1c0,0,33.7,0,39.4,0c0,0-32.1,50.8-32.1,64.3c0,19.5,15.8,35.4,35.4,35.4s35.4-16.1,35.4-35.4
	C-214.4,498.2-243.3,445.1-243.3,445.1z M-362.2,535.1c-13.1,0-23.9-9.8-25.5-22.5h51C-338.3,525.3-349.1,535.1-362.2,535.1z
	 M-338.7,503h-47.8l25.9-47.8L-338.7,503z M-248.1,455.2l21.9,47.8H-274L-248.1,455.2z M-249.7,535.1c-13.1,0-23.9-9.8-25.5-22.5h51
	C-225.8,525.3-236.6,535.1-249.7,535.1z"/>
<g>
	<polygon class="st1" points="-336.4,503.7 -388.8,503.7 -360.4,451.5 	"/>
	<path class="st1" d="M-362.2,538.9c-14.3,0-26.2-10.7-27.9-24.6h55.8C-336,528.1-347.9,538.9-362.2,538.9z"/>
	<path class="st1" d="M-334.3,514.3c0,6.8-55.8,5.3-55.8,0c-0.3-6.8,1.3-10.5,1.3-10.5h52.3C-336.4,503.7-334.3,507.4-334.3,514.3z"
		/>
</g>
<g>
	<polygon class="st2" points="-247.9,451.5 -224,503.7 -276.3,503.7 	"/>
	<path class="st2" d="M-249.7,538.9c-14.3,0-26.2-10.7-27.9-24.6h55.8C-223.6,528.1-235.4,538.9-249.7,538.9z"/>
	<path class="st2" d="M-221.8,514.3c0,6.8-55.8,5.3-55.8,0c-0.3-6.8,1.3-10.5,1.3-10.5h52.3C-223.9,503.7-221.8,507.4-221.8,514.3z"
		/>
</g>
<path class="st3" d="M-260.7,488.7c1.3,0.8,2.8,0.5,3.3-0.5l6-11.5c0.6-1.1,0-2.6-1.3-3.4c0,0,0,0,0,0c-1.3-0.8-2.8-0.5-3.3,0.5
	l-6,11.5C-262.5,486.4-262,487.9-260.7,488.7z M-262.5,524.5c-5.7-4.6-7.8-11.8-5-17.1l6-11.5c0.6-1.1,0-2.6-1.3-3.4
	c-1.3-0.8-2.8-0.5-3.3,0.5l-6,11.5c-3.8,7.2-0.9,17,6.8,23.3c1.2,1,2.7,1,3.5,0.1S-261.3,525.5-262.5,524.5
	C-262.5,524.5-262.5,524.5-262.5,524.5z"/>
<path class="st3" d="M-373.4,488.7c1.3,0.8,2.8,0.5,3.3-0.5l6-11.5c0.6-1.1,0-2.6-1.3-3.4c0,0,0,0,0,0c-1.3-0.8-2.8-0.5-3.3,0.5
	l-6,11.5C-375.3,486.4-374.7,487.9-373.4,488.7z M-375.3,524.5c-5.7-4.6-7.8-11.8-5-17.1l6-11.5c0.6-1.1,0-2.6-1.3-3.4
	c-1.3-0.8-2.8-0.5-3.3,0.5l-6,11.5c-3.8,7.2-0.9,17,6.8,23.3c1.2,1,2.7,1,3.5,0.1C-373.8,527-374.1,525.5-375.3,524.5
	C-375.2,524.5-375.2,524.5-375.3,524.5z"/>
<path class="st4" d="M-311.5,421.7l0,139.3h11.3l0-139.3L-311.5,421.7z"/>
<path class="st1" d="M-332.4,563.9h52.5"/>
<path class="st4" d="M-283.2,595.1h5.7v-18.7h-55.6v18.7h36.2c1.9,0,3.4,1.3,3.4,2.8h6.8C-286.6,596.3-285.1,595.1-283.2,595.1z"/>
<path class="st2" d="M-346.7,565.1v41.2h82.9v-41.2H-346.7z M-270.6,573.6v24.3c0,1.5-1.5,2.8-3.4,2.8h-9.1c-1.9,0-3.4-1.3-3.4-2.8
	h-6.8c0,1.5-1.5,2.8-3.4,2.8h-39.6c-1.9,0-3.4-1.3-3.4-2.8v-24.3c0-1.5,1.5-2.8,3.4-2.8h62.4C-272.2,570.8-270.6,572-270.6,573.6
	L-270.6,573.6z"/>
<path class="st0" d="M-338.4,560.7h-11.8c-1.9,0-3.4,1.3-3.4,2.8v46.8c0,1.5,1.5,2.8,3.4,2.8h89.8c1.9,0,3.4-1.3,3.4-2.8v-46.8
	c0-1.5-1.5-2.8-3.4-2.8h-11.8 M-263.8,607.5h-82.9v-41.2h82.9L-263.8,607.5L-263.8,607.5z M-279,560.7h-52.5"/>
<path class="st0" d="M-339.9,573.6v24.3c0,1.5,1.5,2.8,3.4,2.8h39.6c1.9,0,3.4-1.3,3.4-2.8c0-1.5-1.5-2.8-3.4-2.8h-36.2v-18.7h55.6
	v18.7h-5.7c-1.9,0-3.4,1.3-3.4,2.8c0,1.5,1.5,2.8,3.4,2.8h9.1c1.9,0,3.4-1.3,3.4-2.8v-24.3c0-1.5-1.5-2.8-3.4-2.8h-62.4
	C-338.4,570.8-339.9,572-339.9,573.6z"/>
</svg>
