<?xml version="1.0" encoding="utf-8"?>
<!-- Generator: Adobe Illustrator 19.0.0, SVG Export Plug-In . SVG Version: 6.00 Build 0)  -->
<svg version="1.1" id="图层_1" xmlns="http://www.w3.org/2000/svg" xmlns:xlink="http://www.w3.org/1999/xlink" x="0px" y="0px"
	 viewBox="-411 413 200 200" style="enable-background:new -411 413 200 200;" xml:space="preserve">
<style type="text/css">
	.st0{fill:#FFAA03;}
	.st1{fill:#FFC303;}
	.st2{fill:#DD8400;}
	.st3{fill:#FF57BF;}
	.st4{fill:#E54BC7;}
	.st5{fill:#FF9903;}
</style>
<path class="st0" d="M-331.1,502.6c-26-0.4-47.2-13.8-61.5-38.7c-10.5-18.4-13.4-36.4-13.6-37.2c-0.2-1.3,0.2-2.7,1.1-3.8
	c0.9-1,2.2-1.7,3.6-1.7h40.1c2.6,0,4.7,2.1,4.7,4.7s-2.1,4.7-4.7,4.7h-34.3c3.9,16.2,18.9,61.8,64.7,62.6c2.6,0,4.7,2.2,4.6,4.8
	C-326.4,500.6-328.5,502.6-331.1,502.6z"/>
<path class="st1" d="M-285.6,498.9c20.5-9.6,34.8-30.4,34.8-54.5h-120.4c0,24.2,14.3,44.9,34.8,54.5c1.5,9.7,8.3,17.5,17.3,20.5
	v19.7c-7.9,2.6-14.2,9-16.6,17h-10.8V568h71.1v-11.8h-10.9c-2.4-8-8.6-14.4-16.6-17v-19.7C-293.9,516.5-287.1,508.6-285.6,498.9z"/>
<path class="st2" d="M-250.9,447.7c0,0.4,0,0.8-0.1,1.2v0.4c0,0.3-0.1,0.7-0.1,1v0.1l-0.1,0.5c0,0.3-0.1,0.6-0.1,0.9l-0.1,0.6
	c0,0.3-0.1,0.5-0.1,0.8H-311v-5.5H-250.9L-250.9,447.7z"/>
<path class="st0" d="M-216.9,422.9c-0.9-1-2.2-1.7-3.6-1.7h-40.1c-2.6,0-4.7,2.1-4.7,4.7s2.1,4.7,4.7,4.7h34.2
	c-3.4,13.4-14.8,47.7-45,58.9c12.6-11,20.5-27.2,20.5-45.2h-60.5v123.6h36v-11.8h-10.9c-2.4-8-8.6-14.4-16.6-17v-19.7
	c7.9-2.6,14.2-9,16.6-17c23.9-1.8,43.5-15,57-38.5c10.5-18.4,13.5-36.4,13.6-37.2C-215.6,425.4-216,424-216.9,422.9z"/>
<path class="st3" d="M-369.9,564.5h117.8V613h-117.8V564.5z"/>
<path class="st4" d="M-311.4,564.5h59.3V613h-59.3V564.5z"/>
<path class="st1" d="M-346.5,575.6h71.1v27.5h-71.1V575.6z"/>
<path class="st0" d="M-311.5,575.6h36v27.5h-36V575.6z"/>
<path class="st3" d="M-377.4,413h132.9v34.7h-132.9V413z"/>
<path class="st4" d="M-312,413h67.5v34.7H-312V413z"/>
<path class="st5" d="M-250.9,447.7c-0.1,1.9-0.3,3.7-0.6,5.5h-119.1c-0.3-1.8-0.4-3.7-0.5-5.5H-250.9L-250.9,447.7z"/>
</svg>
